<svg width="332" height="61" viewBox="0 0 332 61" fill="none" xmlns="http://www.w3.org/2000/svg">
<path d="M151.167 14.0247H144.724L131.983 27.4896H115.912V3.88978H110.048V30.8196V32.9914V44.8637V48.1213H115.912V32.9914H116.636H131.621L144.507 48.1213H151.384L136.254 30.1681L151.167 14.0247Z" fill="#050E29"/>
<path d="M290.231 14.0256H284.15C284.15 14.0256 284.15 23.9433 284.077 28.9383C284.005 32.2684 283.571 35.888 281.616 38.7113C279.3 42.1137 275.246 42.91 271.409 42.91C267.572 42.91 269.671 42.91 268.803 42.7652C264.097 42.4033 260.84 39.58 259.392 35.0917C258.451 31.9788 258.668 28.504 258.668 25.2463C258.668 21.5543 258.885 14.098 258.885 14.098H252.66C252.66 14.098 252.66 19.8893 252.66 22.8574C252.66 25.8255 252.442 28.4316 252.66 31.1825C252.877 34.2953 253.311 36.8291 254.759 39.6524C257.22 44.2854 261.564 47.7603 266.921 48.3394C271.843 48.9185 278.214 48.5566 282.63 45.9505C287.625 42.9824 289.869 37.2634 290.086 31.7616C290.375 23.4365 290.375 14.1703 290.375 14.1703L290.231 14.0256Z" fill="#050E29"/>
<path d="M94.3404 28.0696C93.8337 28.0696 93.2545 27.9972 92.6754 27.9972C86.0878 27.8524 79.4278 28.3592 72.8402 27.9972C71.5372 27.9972 70.0893 27.7801 69.0759 26.9113C66.5422 24.5948 68.352 21.5543 70.7409 20.1065C73.1298 18.6587 73.6365 19.2378 75.3739 19.2378C77.4732 19.2378 79.5002 19.2378 81.5995 19.2378C87.8252 19.2378 94.1232 19.2378 100.349 19.2378H100.566V14.0256H76.6769C72.2611 14.0256 67.1937 14.4599 64.2981 18.2967C62.6331 20.5408 62.1263 23.5089 62.3435 26.2598C62.3435 26.9114 62.6331 28.2144 62.6331 28.2144C63.357 30.6757 65.7459 32.7027 69.7274 33.1371C76.7493 33.9334 84.9295 32.9923 92.0963 33.5714C98.8286 34.0782 98.1047 42.2585 93.1821 42.6928H61.6196V48.1222H92.3858C95.8606 48.1222 98.7563 47.1811 100.566 44.0683C102.376 40.9554 102.448 39.2904 102.303 36.7567C102.159 34.3677 101.29 32.0512 99.5526 30.3862C97.8152 28.7212 96.295 28.2868 94.3404 28.0696Z" fill="#050E29"/>
<path d="M236.661 28.0696C236.154 28.0696 235.575 27.9972 234.996 27.9972C228.408 27.8524 221.748 28.3592 215.16 27.9972C213.857 27.9972 212.41 27.7801 211.396 26.9113C208.862 24.5948 210.672 21.5543 213.061 20.1065C215.45 18.6587 215.957 19.2378 217.694 19.2378C219.793 19.2378 221.82 19.2378 223.92 19.2378C230.145 19.2378 236.443 19.2378 242.669 19.2378H242.886V14.0256H219.07C214.654 14.0256 209.586 14.4599 206.691 18.2967C205.026 20.5408 204.519 23.5089 204.736 26.2598C204.736 26.9114 205.026 28.2144 205.026 28.2144C205.75 30.6757 208.138 32.7027 212.12 33.1371C219.142 33.9334 227.322 32.9923 234.489 33.5714C241.221 34.0782 240.497 42.2585 235.575 42.6928H204.012V48.1222H234.778C238.253 48.1222 241.149 47.1811 242.959 44.0683C244.768 40.9554 244.841 39.2904 244.696 36.7567C244.551 34.3677 243.683 32.0512 241.945 30.3862C240.208 28.7212 238.688 28.2868 236.733 28.0696H236.661Z" fill="#050E29"/>
<path d="M314.988 14.0232C308.907 14.0232 301.958 16.0502 299.134 21.9139C297.687 24.9544 297.904 28.212 297.904 31.4697V48.0475H303.767V28.0673C303.767 25.1716 304.853 22.7826 307.387 21.19C310.645 19.0906 314.988 19.3802 318.608 19.3802C323.096 19.3802 327.512 19.3802 332 19.3802V13.9508H314.916L314.988 14.0232Z" fill="#050E29"/>
<path d="M190.331 32.1212V42.6905H180.341C176.143 42.6905 172.089 43.1248 168.686 40.2291C166.804 38.6365 165.067 36.1028 165.067 33.4967V13.9508H159.203V34.3654C159.203 38.1298 161.303 41.6046 163.981 44.1383C165.356 45.369 166.877 46.4548 168.542 47.2512C170.207 48.0475 172.813 48.1199 174.84 48.1923C179.979 48.337 185.192 48.1923 190.331 48.1923C190.331 49.9297 190.331 51.3775 189.463 52.9701C188.811 53.9836 187.001 55.3591 185.698 55.3591H161.664V60.7885C166.804 60.7885 171.872 60.7885 177.011 60.7885C181.5 60.7885 187.581 61.802 191.345 58.9063C193.155 57.4585 195.182 55.3591 195.906 53.1149C196.557 51.0879 196.195 48.8438 196.195 46.7444C196.195 44.645 196.195 44.0659 196.195 42.7629V14.0956H190.331V32.1936V32.1212Z" fill="#050E29"/>
<path d="M48.9603 26.7629L45.4319 27.8006C45.4319 27.8006 45.4319 27.8006 45.4088 27.8006C41.3731 29.2995 37.6602 31.5593 34.2471 34.165C34.2471 34.165 34.2471 34.165 34.2241 34.165L30.05 37.8546C29.7963 38.0852 29.3812 37.9007 29.3581 37.5548C28.92 28.7691 24.0771 19.6836 16.1671 15.6943C15.9595 15.579 15.8673 15.3253 15.9826 15.1178C18.5655 10.4828 21.2867 5.75554 22.0938 0.359583C22.163 -0.0785503 22.7395 -0.12467 22.901 0.267345C23.7081 2.31965 24.1232 4.55644 25.1149 6.65487C29.5196 15.971 38.8594 23.4654 48.9141 25.8866C49.3292 25.9789 49.3523 26.5784 48.9372 26.6937L48.9603 26.7629Z" fill="url(#paint0_linear_6_4)"/>
<path d="M18.9976 23.2723C19.5513 32.1609 24.5339 40.8653 32.5154 45.0102C32.7461 45.1254 32.8384 45.4247 32.7 45.655C29.9088 50.2605 27.4174 55.0962 26.4024 60.4386C26.3102 60.8761 25.7104 60.9452 25.5489 60.5077L22.4117 52.4251C22.4117 52.4251 22.4117 52.379 22.3886 52.379C17.752 43.7898 9.72432 37.4572 0.335669 34.8781C-0.0795537 34.763 -0.125689 34.1643 0.289534 34.0261L5.31834 32.207C5.31834 32.207 5.34141 32.207 5.36448 32.207C8.54785 30.6641 11.7543 28.9371 14.4763 26.6804C14.8915 26.335 17.1061 23.871 18.2825 23.019C18.5593 22.8118 18.9746 23.019 18.9976 23.3644V23.2723Z" fill="url(#paint1_linear_6_4)"/>
<defs>
<linearGradient id="paint0_linear_6_4" x1="15.4983" y1="64.8805" x2="34.1295" y2="16.8925" gradientUnits="userSpaceOnUse">
<stop stop-color="#07308C"/>
<stop offset="0.1" stop-color="#06369A"/>
<stop offset="0.2" stop-color="#013FB8"/>
<stop offset="0.3" stop-color="#0049D5"/>
<stop offset="0.4" stop-color="#0054F3"/>
<stop offset="0.5" stop-color="#0066F3"/>
<stop offset="0.6" stop-color="#0080D3"/>
<stop offset="0.7" stop-color="#3498B4"/>
<stop offset="0.8" stop-color="#5BB594"/>
<stop offset="0.9" stop-color="#7FD274"/>
<stop offset="1" stop-color="#93DF61"/>
</linearGradient>
<linearGradient id="paint1_linear_6_4" x1="7.83275" y1="61.8433" x2="26.4148" y2="13.8781" gradientUnits="userSpaceOnUse">
<stop stop-color="#07308C"/>
<stop offset="0.1" stop-color="#06369A"/>
<stop offset="0.2" stop-color="#013FB8"/>
<stop offset="0.3" stop-color="#0049D5"/>
<stop offset="0.4" stop-color="#0054F3"/>
<stop offset="0.5" stop-color="#0066F3"/>
<stop offset="0.6" stop-color="#0080D3"/>
<stop offset="0.7" stop-color="#3498B4"/>
<stop offset="0.8" stop-color="#5BB594"/>
<stop offset="0.9" stop-color="#7FD274"/>
<stop offset="1" stop-color="#93DF61"/>
</linearGradient>
</defs>
</svg>
